<svg xmlns="http://www.w3.org/2000/svg" viewBox="0 0 100 100" width="100" height="100" role="img" aria-label="Hej">
  <rect width="100" height="100" rx="24" fill="#163763"/>
  <path d="M38.47 62.01L31.39 62.01L31.39 32.97L38.47 32.97L38.47 62.01M19.55 62.01L12.47 62.01L12.47 32.97L19.55 32.97L19.55 62.01M34.25 50.22L16.78 50.22L16.78 44.50L34.25 44.50 M54.44 62.63Q51.54 62.63 49.25 61.86Q46.96 61.09 45.36 59.59Q43.75 58.10 42.92 55.90Q42.08 53.70 42.08 50.84Q42.08 48.06 42.89 45.73Q43.71 43.40 45.23 41.71Q46.74 40.01 48.97 39.09Q51.19 38.16 53.96 38.16Q56.78 38.16 58.91 39.07Q61.04 39.97 62.43 41.73Q63.82 43.49 64.48 46.02Q65.14 48.55 64.92 51.80L46.74 51.94L46.74 48.24L60.87 48.11L58.36 49.82Q58.67 47.62 58.10 46.24Q57.52 44.85 56.42 44.21Q55.32 43.58 54.05 43.58Q52.51 43.58 51.34 44.41Q50.18 45.25 49.52 46.83Q48.86 48.42 48.86 50.70Q48.86 54.31 50.42 55.94Q51.98 57.57 54.40 57.57Q55.59 57.57 56.38 57.24Q57.17 56.91 57.68 56.40Q58.18 55.90 58.47 55.28Q58.76 54.66 58.93 54.09L65.09 55.41Q64.74 57.04 63.97 58.36Q63.20 59.68 61.90 60.65Q60.60 61.62 58.78 62.12Q56.95 62.63 54.44 62.63 M66.54 71.16Q66.32 71.16 66.19 71.16Q66.06 71.16 65.88 71.16L65.31 65.14Q67.03 64.92 67.73 64.26Q68.44 63.60 68.44 61.88L68.44 38.78L75.56 38.78L75.56 62.28Q75.56 64.65 74.97 66.35Q74.38 68.04 73.23 69.10Q72.09 70.15 70.39 70.66Q68.70 71.16 66.54 71.16M72 35.52Q69.98 35.52 68.90 34.67Q67.82 33.81 67.82 32.22Q67.82 30.55 68.90 29.69Q69.98 28.84 72 28.84Q74.07 28.84 75.15 29.69Q76.22 30.55 76.22 32.18Q76.22 33.81 75.15 34.67Q74.07 35.52 72 35.52" fill="#FFFFFF"/>
  <path d="M82.91 62.58Q80.62 62.58 79.50 61.62Q78.38 60.65 78.38 58.62Q78.38 56.56 79.50 55.59Q80.62 54.62 82.91 54.62Q85.24 54.62 86.39 55.59Q87.53 56.56 87.53 58.62Q87.53 62.58 82.91 62.58" fill="#FF6F5B"/>
</svg>
